<svg width="32" height="33" viewBox="0 0 32 33" fill="none" xmlns="http://www.w3.org/2000/svg">
<path d="M29.7279 12.9524L9.74264 0.982137C8.6877 0.348023 7.36826 0.00116051 6.00665 0C2.68933 0 0 2.02811 0 4.5306V28.4692C0 29.4926 0.458665 30.4855 1.30266 31.2869C3.36666 33.2463 7.14531 33.5734 9.74264 32.0167L29.7292 20.0474C30.0886 19.8321 30.4134 19.5873 30.6972 19.3176C32.7599 17.3583 32.3266 14.5081 29.7279 12.9524ZM26.9933 17.099C26.9326 17.1564 26.8633 17.2084 26.7866 17.2542L6.80131 29.2235C6.67075 29.302 6.52008 29.3604 6.35826 29.3952C6.19644 29.43 6.02677 29.4405 5.85934 29.426C5.69191 29.4116 5.53015 29.3724 5.38366 29.311C5.23718 29.2495 5.10897 29.167 5.00665 29.0683C4.8271 28.8966 4.73002 28.6859 4.73065 28.4692V4.5306C4.72709 4.27843 4.85941 4.03552 5.0986 3.85509C5.33778 3.67467 5.66433 3.57147 6.00665 3.5681C6.29598 3.5681 6.57598 3.64078 6.80131 3.77632L26.7879 15.7456C27.0539 15.9075 27.224 16.1392 27.2623 16.3917C27.3006 16.6443 27.2041 16.8979 26.9933 17.099V17.099Z" fill="#EA4809"/>
</svg>
